<svg xmlns="http://www.w3.org/2000/svg" width="19" height="19" viewBox="0 0 19 19">
  <path id="_79ab817da858b03208c4f540e768ed71" data-name="79ab817da858b03208c4f540e768ed71" d="M11.676,8h1.357c.476,0,.86,0,1.172.021a2.721,2.721,0,0,1,.874.18,2.639,2.639,0,0,1,1.428,1.428,2.722,2.722,0,0,1,.18.874c.021.312.021.7.021,1.172v1.357c0,.476,0,.86-.021,1.172a2.722,2.722,0,0,1-.18.874,2.639,2.639,0,0,1-1.428,1.428,2.722,2.722,0,0,1-.874.18c-.312.021-.7.021-1.172.021H11.676c-.476,0-.86,0-1.172-.021a2.722,2.722,0,0,1-.874-.18A2.639,2.639,0,0,1,8.2,15.079a2.721,2.721,0,0,1-.18-.874C8,13.892,8,13.509,8,13.033V11.676c0-.476,0-.86.021-1.172a2.721,2.721,0,0,1,.18-.874A2.639,2.639,0,0,1,9.629,8.2a2.721,2.721,0,0,1,.874-.18C10.816,8,11.2,8,11.676,8Zm-1.1,1.074a1.7,1.7,0,0,0-.542.1,1.583,1.583,0,0,0-.857.857,1.7,1.7,0,0,0-.1.542c-.019.272-.019.62-.019,1.119v1.319c0,.5,0,.847.019,1.119a1.7,1.7,0,0,0,.1.542,1.583,1.583,0,0,0,.857.857,1.7,1.7,0,0,0,.542.1c.272.019.62.019,1.119.019h1.319c.5,0,.847,0,1.119-.019a1.7,1.7,0,0,0,.542-.1,1.583,1.583,0,0,0,.857-.857,1.7,1.7,0,0,0,.1-.542c.019-.272.019-.62.019-1.119V11.694c0-.5,0-.847-.019-1.119a1.7,1.7,0,0,0-.1-.542,1.583,1.583,0,0,0-.857-.857,1.7,1.7,0,0,0-.542-.1c-.272-.019-.62-.019-1.119-.019H11.694C11.2,9.056,10.848,9.056,10.575,9.074Zm1.1,9.217h1.357c.476,0,.86,0,1.172.021a2.722,2.722,0,0,1,.874.18,2.639,2.639,0,0,1,1.428,1.428,2.722,2.722,0,0,1,.18.874c.021.312.021.7.021,1.172v1.357c0,.476,0,.86-.021,1.172a2.722,2.722,0,0,1-.18.874A2.639,2.639,0,0,1,15.079,26.8a2.722,2.722,0,0,1-.874.18c-.312.021-.7.021-1.172.021H11.676c-.476,0-.86,0-1.172-.021a2.722,2.722,0,0,1-.874-.18A2.639,2.639,0,0,1,8.2,25.371a2.721,2.721,0,0,1-.18-.874C8,24.184,8,23.8,8,23.324V21.967c0-.476,0-.86.021-1.172a2.721,2.721,0,0,1,.18-.874,2.639,2.639,0,0,1,1.428-1.428,2.722,2.722,0,0,1,.874-.18C10.816,18.292,11.2,18.292,11.676,18.292Zm-1.1,1.074a1.7,1.7,0,0,0-.542.1,1.583,1.583,0,0,0-.857.857,1.7,1.7,0,0,0-.1.542c-.019.272-.019.62-.019,1.119v1.319c0,.5,0,.847.019,1.119a1.7,1.7,0,0,0,.1.542,1.583,1.583,0,0,0,.857.857,1.7,1.7,0,0,0,.542.1c.272.019.62.019,1.119.019h1.319c.5,0,.847,0,1.119-.019a1.7,1.7,0,0,0,.542-.1,1.583,1.583,0,0,0,.857-.857,1.7,1.7,0,0,0,.1-.542c.019-.272.019-.62.019-1.119V21.986c0-.5,0-.847-.019-1.119a1.7,1.7,0,0,0-.1-.542,1.583,1.583,0,0,0-.857-.857,1.7,1.7,0,0,0-.542-.1c-.272-.019-.62-.019-1.119-.019H11.694C11.2,19.347,10.848,19.348,10.575,19.366ZM21.967,8h1.357c.476,0,.86,0,1.172.021a2.721,2.721,0,0,1,.874.18A2.639,2.639,0,0,1,26.8,9.629a2.722,2.722,0,0,1,.18.874c.021.312.021.7.021,1.172v1.357c0,.476,0,.86-.021,1.172a2.722,2.722,0,0,1-.18.874,2.639,2.639,0,0,1-1.428,1.428,2.722,2.722,0,0,1-.874.18c-.312.021-.7.021-1.172.021H21.967c-.476,0-.86,0-1.172-.021a2.722,2.722,0,0,1-.874-.18,2.639,2.639,0,0,1-1.428-1.428,2.722,2.722,0,0,1-.18-.874c-.021-.312-.021-.7-.021-1.172V11.676c0-.476,0-.86.021-1.172a2.722,2.722,0,0,1,.18-.874A2.639,2.639,0,0,1,19.921,8.2a2.721,2.721,0,0,1,.874-.18C21.108,8,21.491,8,21.967,8Zm-1.1,1.074a1.7,1.7,0,0,0-.542.1,1.583,1.583,0,0,0-.857.857,1.7,1.7,0,0,0-.1.542c-.019.272-.019.62-.019,1.119v1.319c0,.5,0,.847.019,1.119a1.7,1.7,0,0,0,.1.542,1.583,1.583,0,0,0,.857.857,1.7,1.7,0,0,0,.542.1c.272.019.62.019,1.119.019h1.319c.5,0,.847,0,1.119-.019a1.7,1.7,0,0,0,.542-.1,1.583,1.583,0,0,0,.857-.857,1.7,1.7,0,0,0,.1-.542c.019-.272.019-.62.019-1.119V11.694c0-.5,0-.847-.019-1.119a1.7,1.7,0,0,0-.1-.542,1.583,1.583,0,0,0-.857-.857,1.7,1.7,0,0,0-.542-.1c-.272-.019-.62-.019-1.119-.019H21.986C21.487,9.056,21.139,9.056,20.867,9.074Zm1.1,9.217h1.357c.476,0,.86,0,1.172.021a2.722,2.722,0,0,1,.874.18A2.639,2.639,0,0,1,26.8,19.921a2.722,2.722,0,0,1,.18.874c.021.312.021.7.021,1.172v1.357c0,.476,0,.86-.021,1.172a2.722,2.722,0,0,1-.18.874A2.639,2.639,0,0,1,25.371,26.8a2.722,2.722,0,0,1-.874.18c-.312.021-.7.021-1.172.021H21.967c-.476,0-.86,0-1.172-.021a2.722,2.722,0,0,1-.874-.18,2.639,2.639,0,0,1-1.428-1.428,2.722,2.722,0,0,1-.18-.874c-.021-.312-.021-.7-.021-1.172V21.967c0-.476,0-.86.021-1.172a2.722,2.722,0,0,1,.18-.874,2.639,2.639,0,0,1,1.428-1.428,2.722,2.722,0,0,1,.874-.18C21.108,18.292,21.491,18.292,21.967,18.292Zm-1.1,1.074a1.7,1.7,0,0,0-.542.1,1.583,1.583,0,0,0-.857.857,1.7,1.7,0,0,0-.1.542c-.019.272-.019.62-.019,1.119v1.319c0,.5,0,.847.019,1.119a1.7,1.7,0,0,0,.1.542,1.583,1.583,0,0,0,.857.857,1.7,1.7,0,0,0,.542.1c.272.019.62.019,1.119.019h1.319c.5,0,.847,0,1.119-.019a1.7,1.7,0,0,0,.542-.1,1.583,1.583,0,0,0,.857-.857,1.7,1.7,0,0,0,.1-.542c.019-.272.019-.62.019-1.119V21.986c0-.5,0-.847-.019-1.119a1.7,1.7,0,0,0-.1-.542,1.583,1.583,0,0,0-.857-.857,1.7,1.7,0,0,0-.542-.1c-.272-.019-.62-.019-1.119-.019H21.986C21.487,19.347,21.139,19.348,20.867,19.366Z" transform="translate(-8 -8)" fill="#fff" fill-rule="evenodd"/>
</svg>
