<svg xmlns="http://www.w3.org/2000/svg" width="19.59" height="18.611" viewBox="0 0 19.59 18.611">
  <path id="_0abc1c2af5f7d2aabdb8b205e6a25a26" data-name="0abc1c2af5f7d2aabdb8b205e6a25a26" d="M16.467,5.311A.98.98,0,0,0,17.8,4.949a.981.981,0,1,1,.852,1.469.98.98,0,1,0,0,1.959A2.939,2.939,0,1,0,16.1,3.969a.98.98,0,0,0,.362,1.342Zm4.143,7.963a.98.98,0,0,0-.98.98v3.918a.98.98,0,0,1-.98.98H4.939a.98.98,0,0,1-.98-.98V8.779l5.759,5.769a2.939,2.939,0,0,0,4.153,0l1.606-1.606a.984.984,0,0,0-1.391-1.391l-1.606,1.606a.98.98,0,0,1-1.371,0L5.34,7.4h7.434a.98.98,0,0,0,0-1.959H4.939A2.939,2.939,0,0,0,2,8.377v9.8a2.939,2.939,0,0,0,2.939,2.939H18.652a2.939,2.939,0,0,0,2.939-2.939V14.254A.98.98,0,0,0,20.611,13.275ZM17.956,9.641a.979.979,0,0,0,0,1.391l.147.118a.745.745,0,0,0,.176.088.627.627,0,0,0,.176.059h.2a.978.978,0,1,0-.7-1.655Z" transform="translate(-2 -2.5)" fill="#fff"/>
</svg>
