<svg id="Group_1145" data-name="Group 1145" xmlns="http://www.w3.org/2000/svg" width="50.35" height="59.133" viewBox="0 0 50.35 59.133">
  <path id="Path_852" data-name="Path 852" d="M67.5.03H68.2a4.306,4.306,0,0,1,2.867,1.494A22.392,22.392,0,0,0,78.9,6.244a26,26,0,0,0,6.516,1.373,8.365,8.365,0,0,1,4.44,1.208,5.941,5.941,0,0,1,2.8,4.886c.067,3.515.061,7.031.043,10.546A46.813,46.813,0,0,1,91.319,36.28a32.488,32.488,0,0,1-4.767,10.427,30.836,30.836,0,0,1-8.9,8.329,41.365,41.365,0,0,1-7.859,3.819,6.46,6.46,0,0,1-2.037.308.386.386,0,0,1-.4-.164,1.8,1.8,0,0,1-.126-.9q-.009-6.388,0-12.775a2.236,2.236,0,0,1,.094-.851c.215-.478.691-.47,1.084-.492a14.414,14.414,0,0,0,13.01-10.532,14.068,14.068,0,0,0,.554-3.808,14.491,14.491,0,0,0-1.122-5.615A13.972,13.972,0,0,0,77.4,19.038a14.2,14.2,0,0,0-8.791-3.866c-.46-.033-.979.013-1.275-.485a2.343,2.343,0,0,1-.1-.911q-.007-6.337,0-12.674c0-.373-.08-.782.272-1.072" transform="translate(-42.36 -0.03)" fill="#00a85e"/>
  <path id="Path_853" data-name="Path 853" d="M25.192,44.342q0,7.37-.006,14.74a4.3,4.3,0,0,1-2.237-.229A38.336,38.336,0,0,1,11.3,52.327a29.363,29.363,0,0,1-6.9-8.411A35.2,35.2,0,0,1,.756,33.52a35.741,35.741,0,0,1-.62-6.341,11.757,11.757,0,0,0-.11-1.766v-.577a.152.152,0,0,0,0-.231v-.692c.121-.229.028-.475.058-.711v-.551a2.409,2.409,0,0,0-.058-.815v-.462a5.02,5.02,0,0,0,.058-1.182V17.24a6.02,6.02,0,0,0-.058-1.287v-1.5a4.42,4.42,0,0,0,.1-1.248,5.54,5.54,0,0,1,2.539-4.25A6.434,6.434,0,0,1,6.267,7.731,25.992,25.992,0,0,0,15.212,5.71a21.772,21.772,0,0,0,6.306-4.085A4.534,4.534,0,0,1,24.593.03h.577q0,6.862.01,13.724c0,.346.008.692.012,1.038a.617.617,0,0,1-.318.332,16.812,16.812,0,0,0-3.74.595,14.259,14.259,0,0,0-5.411,2.959,14.029,14.029,0,0,0-4.142,6.06,14.406,14.406,0,0,0-.411,8.275,14.189,14.189,0,0,0,3.582,6.543,13.976,13.976,0,0,0,5.018,3.394,15.471,15.471,0,0,0,5.1,1.06.606.606,0,0,1,.319.332" transform="translate(-0.026 -0.03)" fill="#00dd7c"/>
  <path id="Path_856" data-name="Path 856" d="M.026,43.062c.245.405.064.843.1,1.265q-.042.126-.1,0Z" transform="translate(-0.026 -27.14)" fill="#74ecb8"/>
  <path id="Path_857" data-name="Path 857" d="M.127,51.365l.005,1.153c-.03.084-.065.086-.106.007V51.371q.043-.127.1-.007" transform="translate(-0.026 -32.334)" fill="#33e496"/>
  <path id="Path_858" data-name="Path 858" d="M.026,54.588l.106-.007a2.477,2.477,0,0,1-.106,1.161Z" transform="translate(-0.026 -34.397)" fill="#1be18a"/>
  <path id="Path_859" data-name="Path 859" d="M.127,49.6l-.1.007V48.569c.031-.082.064-.083.1,0q0,.518,0,1.036" transform="translate(-0.026 -30.57)" fill="#4be7a2"/>
  <path id="Path_860" data-name="Path 860" d="M.127,47.288l-.1,0v-.807l.1,0q0,.4,0,.808" transform="translate(-0.026 -29.293)" fill="#5ee9ac"/>
  <path id="Path_861" data-name="Path 861" d="M.026,58.965a1.365,1.365,0,0,1,.1.815q-.06.117-.1-.007Z" transform="translate(-0.026 -37.158)" fill="#27e290"/>
  <path id="Path_862" data-name="Path 862" d="M.124,62.613c-.011.232.1.481-.1.686v-.692q.057-.12.1.006" transform="translate(-0.026 -39.416)" fill="#57e9a8"/>
  <path id="Path_863" data-name="Path 863" d="M.124,61.731l-.1-.006v-.577l.1.007-.006.576" transform="translate(-0.026 -38.534)" fill="#41e69d"/>
  <path id="Path_864" data-name="Path 864" d="M.026,66.449c.131.077.15.154,0,.231Z" transform="translate(-0.026 -41.873)" fill="#9bf1cb"/>
  <path id="Path_865" data-name="Path 865" d="M66.985,40.032l.39-.105a15.5,15.5,0,0,1,6.521,1.59A14.438,14.438,0,0,1,81.888,52.5,14.707,14.707,0,0,1,71.56,68.824a20.19,20.19,0,0,1-4.184.652l-.39-.105a17.366,17.366,0,0,0,.088-2.7q.012-2.645,0-5.29a14.388,14.388,0,0,1,.088-1.948.5.5,0,0,1,.094-.372C69.331,56.8,71.582,54.7,73.727,52.5a1.514,1.514,0,0,0,.364-1.794,1.424,1.424,0,0,0-1.421-.789,2.305,2.305,0,0,0-1.321.769c-1.083,1.065-2.15,2.146-3.223,3.22a4.87,4.87,0,0,1-.418.4c-.225.177-.421.167-.564-.11a4.9,4.9,0,0,1-.067-1.149q0-5.673,0-11.346a10.745,10.745,0,0,0-.091-1.665" transform="translate(-42.209 -25.165)" fill="#e0eaef"/>
  <path id="Path_866" data-name="Path 866" d="M42.952,59.482q0,4.678,0,9.355c0,.3.072.642-.371.713a14.284,14.284,0,0,1-11.157-5.555,13.837,13.837,0,0,1-3.091-7.5,14.382,14.382,0,0,1,3.458-11.168,14.55,14.55,0,0,1,9.524-5.07c.417-.054.843-.03,1.265-.042.406.061.372.369.372.66q0,2.162,0,4.324,0,4.67,0,9.341a.209.209,0,0,1,.06.148,12.006,12.006,0,0,1-2.211,2.4.653.653,0,0,1-.978-.06c-.49-.459-.949-.949-1.432-1.416a1.433,1.433,0,0,0-2.146-.1,1.472,1.472,0,0,0,.123,2.153q1.409,1.439,2.846,2.85a1.462,1.462,0,0,0,2.275.013c.292-.278.566-.574.862-.847.168-.156.334-.338.6-.192" transform="translate(-17.808 -25.344)" fill="#fefefe"/>
  <path id="Path_867" data-name="Path 867" d="M55.374,84.046c-.44.427-.878.855-1.322,1.279a1.7,1.7,0,0,1-2.554,0q-1.5-1.47-2.969-2.971a1.742,1.742,0,0,1-.038-2.522,1.7,1.7,0,0,1,2.474.092c.428.413.842.84,1.263,1.26.543.542.54.539,1.071.019.684-.671,1.373-1.335,2.059-2a.456.456,0,0,1,.263.473,20.568,20.568,0,0,1-.124,4.189l-.124.181" transform="translate(-30.23 -49.907)" fill="#b1d0d7"/>
  <path id="Path_868" data-name="Path 868" d="M68.079,75.613a1.6,1.6,0,0,1-.1-.838c-.016-1.275-.025-2.549-.037-3.824a.426.426,0,0,0,.016-.1c1.383-1.387,2.756-2.783,4.152-4.156A1.732,1.732,0,0,1,75.113,68.1a1.663,1.663,0,0,1-.51,1.007q-3.26,3.255-6.524,6.507" transform="translate(-42.811 -41.656)" fill="#6ca2a8"/>
</svg>
