<svg xmlns="http://www.w3.org/2000/svg" width="20.974" height="20.968" viewBox="0 0 20.974 20.968">
  <g id="Group_217" data-name="Group 217" transform="translate(0.593 3.593)">
    <g id="Group_218" data-name="Group 218" transform="translate(0 -3)">
      <path id="Path_228" data-name="Path 228" d="M14.289,0h.573a3.471,3.471,0,0,1,.784.445q2.46,2.417,4.883,4.871a1.5,1.5,0,0,1,0,2.137c-.331.344-.671.679-1.013,1.013a1.335,1.335,0,0,1-.968.421,7.088,7.088,0,0,1-.84-.114c-.017.025-.059.087-.1.149-.615.949-1.245,1.889-1.841,2.851A9.046,9.046,0,0,1,14.13,13.8a.388.388,0,0,0-.134.32q.006,2.66,0,5.321c0,.066.006.131.009.186.024.012.029.018.035.018.348,0,.7,0,1.043.007a.645.645,0,0,1,.634.643.653.653,0,0,1-.715.665q-7.091,0-14.183.006a.781.781,0,0,1-.823-.5v-.328a.744.744,0,0,1,.822-.495c.3.02.6,0,.921,0v-.277q0-3.631,0-7.262a.678.678,0,0,1,.768-.767H4.169c.07,0,.141-.007.2-.01.007-.032.011-.039.009-.045-.01-.032-.02-.065-.031-.1a5.272,5.272,0,0,1-.257-2.674A5.442,5.442,0,0,1,7.805,4.065c.9-.322,1.848-.5,2.776-.745.518-.135,1.038-.265,1.564-.4-.009-.064-.015-.11-.022-.155A1.533,1.533,0,0,1,12.6,1.339c.167-.161.332-.324.491-.492A2.65,2.65,0,0,1,14.289,0M16.74,7.836c-.027-.032-.047-.059-.07-.083q-1.777-1.8-3.552-3.6a.252.252,0,0,0-.292-.05c-1.008.256-2.02.5-3.024.773A13.1,13.1,0,0,0,7.76,5.5a4.244,4.244,0,0,0-2,5.669.254.254,0,0,0,.277.176,5.225,5.225,0,0,1,.655,0,.28.28,0,0,0,.3-.18c.133-.253.278-.5.425-.745a2.922,2.922,0,0,1,4.962-.14.694.694,0,0,1-.1,1.049L10.315,13.3c-.433.435-.874.863-1.3,1.308a.878.878,0,1,0,1.247,1.233c.894-.91,1.775-1.834,2.692-2.721a11.945,11.945,0,0,0,1.887-2.35c.61-.992,1.261-1.958,1.9-2.938m-4.069,7.53c-.48.46-.968.916-1.443,1.385a2.359,2.359,0,0,1-1.5.709A2.187,2.187,0,0,1,7.412,15.4a2.291,2.291,0,0,1,.673-1.72c.317-.326.65-.637,1.018-.995H3.075v6.953h9.6ZM14.591,1.284a1.439,1.439,0,0,0-.2.136c-.3.292-.588.588-.883.881a.24.24,0,0,0,.006.388q2.367,2.391,4.733,4.784c.151.153.242.151.4,0,.282-.277.561-.558.84-.838.221-.221.221-.284,0-.5L17.524,4.164q-1.345-1.345-2.692-2.689a2.716,2.716,0,0,0-.241-.191m-3.545,9.458a1.6,1.6,0,0,0-2.6.6c.63,0,1.255,0,1.881,0a.235.235,0,0,0,.142-.06c.191-.174.377-.353.576-.542" transform="translate(-0.593 -0.593)" fill="#fff"/>
    </g>
  </g>
</svg>
