<svg xmlns="http://www.w3.org/2000/svg" width="70.427" height="61.955" viewBox="0 0 70.427 61.955">
  <g id="Group_1146" data-name="Group 1146" transform="translate(-0.54 -0.125)">
    <g id="Group_1148" data-name="Group 1148" transform="translate(0.54 0.125)">
      <path id="Path_904" data-name="Path 904" d="M3.639.125H64.1A4.037,4.037,0,0,1,66.1.9,4.271,4.271,0,0,1,67.437,3.81c.022.319.015.64.015.96q0,16.525,0,33.051a3.428,3.428,0,0,1-.17,1.553.493.493,0,0,1-.189.191,3.034,3.034,0,0,1-1.417.175q-7.108.008-14.216,0-24.621,0-49.241-.007c-.534,0-1.108.14-1.584-.258C.5,39.317.55,39.126.55,38.949q0-17.659,0-35.318A3.3,3.3,0,0,1,1.946.6,5.506,5.506,0,0,1,3.639.125" transform="translate(-0.54 -0.125)" fill="#5d9ad7"/>
      <path id="Path_906" data-name="Path 906" d="M465.038,39.378c0-11.422-.033-22.845.026-34.267.012-2.389-.641-4.17-3.045-4.986h3.847a3.056,3.056,0,0,1,2.589,1.339,7.361,7.361,0,0,1,.434,1.683V39.408c-.033.032-.06.079-.1.092a6.416,6.416,0,0,1-3.635.038c-.067-.016-.082-.1-.117-.16" transform="translate(-398.461 -0.125)" fill="#3c88d0"/>
      <path id="Path_907" data-name="Path 907" d="M465.016,285.134l3.851.03v5.769c-.112.247-.215.5-.338.74a3.6,3.6,0,0,1-3.378,2.148c-1.048.008-2.1,0-3.145-.008-.075-.351.209-.418.427-.518a3.727,3.727,0,0,0,2.256-3.68c.006-1.166-.008-2.332.009-3.5,0-.339-.025-.7.326-.921Z" transform="translate(-398.44 -245.881)" fill="#b4dafe"/>
      <path id="Path_909" data-name="Path 909" d="M67.606,285.238c0,1.349-.042,2.7,0,4.048a4.13,4.13,0,0,1-3.018,4.568q-10.476,0-20.952.012c-.322,0-.708-.133-.915.278a21.522,21.522,0,0,1-3.071,0c-3.273.136-6.55-.072-9.822.127-.034-.316-.236-.417-.525-.412-.206,0-.412,0-.618,0q-11.811,0-23.621,0A3.721,3.721,0,0,1,1.1,289.918c0-1.579.008-3.157.013-4.736.343,0,.687.013,1.03.013q32.183,0,64.366,0c.365,0,.731.027,1.1.041" transform="translate(-1.023 -245.923)" fill="#d8ecfe"/>
      <path id="Path_910" data-name="Path 910" d="M296.268,58.388q.007-4.768.015-9.536c0-1.344.473-1.816,1.817-1.816.915,0,1.829.013,2.744.02,1.118.3,1.269.461,1.272,1.6q.025,11.881,0,23.762a1.348,1.348,0,0,1-.134.8.98.98,0,0,1-.765.223q-2.119.046-4.238,0a1.013,1.013,0,0,1-.769-.213,1.677,1.677,0,0,1-.241-.979q-.024-6.461,0-12.922a1.064,1.064,0,0,1,.3-.941" transform="translate(-255.273 -40.575)" fill="#fe3680"/>
      <path id="Path_911" data-name="Path 911" d="M356.164,69.737a1.84,1.84,0,0,1,1.8-.86c.91.048,1.823.023,2.736.029,1.078.337,1.276.575,1.279,1.717q.025,10.156,0,20.313a1.9,1.9,0,0,1-.242,1.122.913.913,0,0,1-.7.211q-2.125.054-4.251,0a.942.942,0,0,1-.706-.2,1.823,1.823,0,0,1-.251-1.117q-.015-10.081.006-20.161c0-.369-.1-.8.325-1.051" transform="translate(-306.895 -59.404)" fill="#fec266"/>
      <path id="Path_912" data-name="Path 912" d="M168.982,234.274l5.535.008a2.733,2.733,0,0,1,2.608.026q2.094,0,4.187.007a1.077,1.077,0,0,1,1.059.623.961.961,0,0,1-.172,1.085.837.837,0,0,1-.645.343c-.229.006-.457.01-.686.01h-40.5c-.183,0-.367.006-.549-.005-.674-.04-1-.342-1.025-.952a1.008,1.008,0,0,1,.926-1.081,5.156,5.156,0,0,1,.753-.025l12.081-.019a.984.984,0,0,1,.87-.3c1.575-.007,3.151-.046,4.726.027.608-.035,1.217-.048,1.826-.026a1.039,1.039,0,0,1,.8.294h5.619a2.808,2.808,0,0,1,2.589-.012" transform="translate(-119.751 -201.759)" fill="#3c88d0"/>
      <path id="Path_913" data-name="Path 913" d="M244.2,137.576l-5.564.008q-.008-7.069-.011-14.137a1.464,1.464,0,0,1,1.668-1.637c.961,0,1.922.011,2.883.018,1,.226,1.192.431,1.353,1.437a3.514,3.514,0,0,1,.042.546q.019,6.366,0,12.733c0,.378.053.8-.37,1.033" transform="translate(-205.834 -105.05)" fill="#74f4a8"/>
      <path id="Path_914" data-name="Path 914" d="M335.086,73.077l-2.589.012a2.539,2.539,0,0,1-.114-1.082q0-11.586.011-23.171a1.738,1.738,0,0,0-.969-1.794c.685-.008,1.37-.025,2.055-.022a1.471,1.471,0,0,1,1.615,1.614c.019.753.02,1.507.029,2.26-.013.3-.038.592-.038.888q0,10.647,0,21.294" transform="translate(-285.855 -40.561)" fill="#fe0465"/>
      <path id="Path_915" data-name="Path 915" d="M394.8,92.022,392.192,92c0-7.019-.014-14.039.012-21.058a2.036,2.036,0,0,0-.97-1.964c.732-.008,1.465-.032,2.2-.019a1.352,1.352,0,0,1,1.4,1.309,4.915,4.915,0,0,1,.025.548q0,10.3,0,20.6c0,.2-.034.408-.052.612" transform="translate(-337.426 -59.472)" fill="#feb542"/>
      <path id="Path_916" data-name="Path 916" d="M55.381,168.453c-.685,0-1.372.022-2.056-.006a1.337,1.337,0,0,1-1.4-1.383q-.045-2.089,0-4.179A1.325,1.325,0,0,1,53.3,161.54q2.089-.041,4.18,0a1.347,1.347,0,0,1,1.4,1.387q.064,2.053,0,4.11a1.386,1.386,0,0,1-1.513,1.423c-.046,0-.091,0-.137,0h-1.85v-.006" transform="translate(-44.833 -139.291)" fill="#d8ecfe"/>
      <path id="Path_917" data-name="Path 917" d="M272.7,137.47q.005-6.955.012-13.909a1.779,1.779,0,0,0-1.035-1.839c.631-.007,1.264.018,1.892-.029a1.618,1.618,0,0,1,1.76,1.064q.014,5.645.027,11.291c0,1.141,0,2.281,0,3.422H272.7" transform="translate(-234.337 -104.944)" fill="#00d68f"/>
      <path id="Path_918" data-name="Path 918" d="M108.748,52.5c-1.121,0-2.242.006-3.363,0a3.383,3.383,0,0,1-.813-.093,1.078,1.078,0,0,1,.039-2.088,3.3,3.3,0,0,1,.747-.081q3.4-.009,6.794,0c1.052,0,1.576.387,1.585,1.118s-.519,1.137-1.557,1.146c-1.144.011-2.288,0-3.431,0" transform="translate(-89.562 -43.331)" fill="#b4dafe"/>
      <path id="Path_919" data-name="Path 919" d="M108.76,77.772c1.235,0,2.47-.008,3.7,0,.782.007,1.246.407,1.263,1.05a1.12,1.12,0,0,1-1.256,1.147q-3.7.021-7.409,0c-.831,0-1.284-.422-1.29-1.107s.448-1.084,1.283-1.091c1.235-.01,2.47,0,3.7,0" transform="translate(-89.555 -67.076)" fill="#b4dafe"/>
      <path id="Path_920" data-name="Path 920" d="M55.749,107.03c-1.211,0-2.423.007-3.634,0-.884-.007-1.342-.4-1.332-1.118.01-.691.456-1.079,1.3-1.081q3.668-.013,7.336,0c.838,0,1.29.4,1.3,1.085.009.714-.451,1.107-1.336,1.114-1.211.009-2.423,0-3.634,0" transform="translate(-43.864 -90.403)" fill="#b4dafe"/>
      <path id="Path_921" data-name="Path 921" d="M53.135,52.375c-.461-.026-.943-.017-1.413-.088a1.083,1.083,0,0,1,.025-2.145,11.508,11.508,0,0,1,2.862.006,1,1,0,0,1,.931,1.082,1.011,1.011,0,0,1-.957,1.063c-.471.065-.953.057-1.448.083" transform="translate(-43.877 -43.179)" fill="#b4dafe"/>
      <path id="Path_922" data-name="Path 922" d="M53.118,79.933c-.433,0-.868.031-1.3-.006A1.051,1.051,0,0,1,50.779,78.8a1.035,1.035,0,0,1,1.1-1.056q1.264-.035,2.529,0a1.059,1.059,0,0,1,1.12,1.045,1.083,1.083,0,0,1-1.045,1.133c-.452.04-.911.008-1.366.008" transform="translate(-43.859 -67.042)" fill="#b4dafe"/>
      <path id="Path_923" data-name="Path 923" d="M143.888,106.983c-.433,0-.868.028-1.3-.007a1.034,1.034,0,0,1-1.018-1.07,1.017,1.017,0,0,1,.989-1.095c.909-.045,1.823-.042,2.733,0a1.077,1.077,0,0,1,1.038,1.071,1.1,1.1,0,0,1-1.077,1.1c-.454.027-.911.005-1.367.005v0" transform="translate(-122.148 -90.365)" fill="#b4dafe"/>
      <path id="Path_924" data-name="Path 924" d="M187.6,414.962a1.541,1.541,0,0,1-.87.127q-10.848,0-21.7-.016a4.558,4.558,0,0,1-1.018-.117,1.4,1.4,0,0,1-1.116-1.691,3.807,3.807,0,0,1,3.927-3.391c.366-.014.732-.007,1.1-.01a.906.906,0,0,1,.732-.313c3.891-.014,7.782-.073,11.671.029.078.008.157.014.235.016a8.521,8.521,0,0,1,3.2.624,3.709,3.709,0,0,1,1.842,3.749c-.154.539-.073.711.486.655a5.035,5.035,0,0,1,.959.016c.231.021.464.045.547.32" transform="translate(-140.516 -353.139)" fill="#d8ecfe"/>
      <path id="Path_925" data-name="Path 925" d="M212.193,356.959H199.538l1.4-8.373c.165-.379.482-.42.849-.419q4.521.016,9.041.013a1.172,1.172,0,0,1,.38.85c.389,2.384.851,4.755,1.211,7.143.046.3.1.594-.225.784" transform="translate(-172.131 -300.234)" fill="#b4dafe"/>
      <path id="Path_926" data-name="Path 926" d="M282.823,357c-.431-2.586-.858-5.173-1.3-7.758a4.19,4.19,0,0,1-.069-1.02c.764,0,1.527,0,2.29-.006a.733.733,0,0,1,.712.281q.65,3.879,1.3,7.758c.041.247.066.5.1.745a.349.349,0,0,1-.342.185c-.888-.229-1.8-.009-2.693-.185Z" transform="translate(-242.761 -300.278)" fill="#8bc9fe"/>
      <path id="Path_927" data-name="Path 927" d="M291.42,412h3.035a16.241,16.241,0,0,1,1.906.1,3.727,3.727,0,0,1,3.12,3.184,1.507,1.507,0,0,1-1.041,1.819h-2.932a2.437,2.437,0,0,0,.164-3.216,3.3,3.3,0,0,0-2.909-1.75A2.671,2.671,0,0,1,291.42,412" transform="translate(-251.359 -355.276)" fill="#b4dafe"/>
    </g>
  </g>
</svg>
