<svg xmlns="http://www.w3.org/2000/svg" width="24.052" height="16.236" viewBox="0 0 24.052 16.236">
  <path id="Icon_zocial-email" data-name="Icon zocial-email" d="M.072,18.866V5.506q0-.023.07-.441L8,11.792.165,19.33a1.966,1.966,0,0,1-.093-.464ZM1.116,4.138a1,1,0,0,1,.394-.07H22.686a1.313,1.313,0,0,1,.417.07l-7.886,6.749-1.044.835L12.11,13.415l-2.064-1.693L9,10.887Zm.023,16.1L9.048,12.65l3.062,2.482,3.062-2.482,7.909,7.584a1.114,1.114,0,0,1-.394.07H1.51a1.051,1.051,0,0,1-.371-.07Zm15.076-8.443,7.84-6.726a1.384,1.384,0,0,1,.07.441v13.36a1.778,1.778,0,0,1-.07.464Z" transform="translate(-0.072 -4.068)" fill="#18a67e"/>
</svg>
