<svg xmlns="http://www.w3.org/2000/svg" width="53" height="52" viewBox="0 0 53 52">
  <g id="Group_974" data-name="Group 974" transform="translate(-1420 -4643)">
    <ellipse id="Ellipse_58" data-name="Ellipse 58" cx="26.5" cy="26" rx="26.5" ry="26" transform="translate(1420 4643)" fill="#0a4729"/>
    <g id="Icon_ionic-logo-instagram" data-name="Icon ionic-logo-instagram" transform="translate(1434.813 4657.469)">
      <path id="Path_24" data-name="Path 24" d="M21.068,6.449a4.887,4.887,0,0,1,4.873,4.873v9.746a4.887,4.887,0,0,1-4.873,4.873H11.322a4.887,4.887,0,0,1-4.873-4.873V11.322a4.887,4.887,0,0,1,4.873-4.873h9.746m0-1.949H11.322A6.842,6.842,0,0,0,4.5,11.322v9.746a6.842,6.842,0,0,0,6.822,6.822h9.746a6.842,6.842,0,0,0,6.822-6.822V11.322A6.842,6.842,0,0,0,21.068,4.5Z" transform="translate(-4.5 -4.5)" fill="#fff"/>
      <path id="Path_25" data-name="Path 25" d="M25.087,11.924a1.462,1.462,0,1,1,1.462-1.462A1.458,1.458,0,0,1,25.087,11.924Z" transform="translate(-7.057 -5.102)" fill="#fff"/>
      <path id="Path_26" data-name="Path 26" d="M17.1,13.2a3.9,3.9,0,1,1-3.9,3.9,3.9,3.9,0,0,1,3.9-3.9m0-1.949A5.847,5.847,0,1,0,22.945,17.1,5.849,5.849,0,0,0,17.1,11.25Z" transform="translate(-5.403 -5.403)" fill="#fff"/>
    </g>
  </g>
</svg>
