<svg id="integration_icon" data-name="integration icon" xmlns="http://www.w3.org/2000/svg" xmlns:xlink="http://www.w3.org/1999/xlink" width="60" height="60" viewBox="0 0 60 60">
  <defs>
    <clipPath id="clip-path">
      <rect id="Rectangle_626" data-name="Rectangle 626" width="60" height="60" fill="none"/>
    </clipPath>
  </defs>
  <g id="Group_1142" data-name="Group 1142">
    <g id="Group_1139" data-name="Group 1139">
      <g id="Group_1138" data-name="Group 1138" clip-path="url(#clip-path)">
        <g id="Group_1137" data-name="Group 1137" transform="translate(0.163 0.109)">
          <g id="Group_1143" data-name="Group 1143">
            <path id="Path_872" data-name="Path 872" d="M138.433,140.664c0-3.351,0-6.7-.014-10.052,0-.451.109-.624.587-.6.8.038,1.6-.018,2.393.021.495.023.672-.1.667-.635-.027-3.1-.02-6.195-.005-9.292,0-.433-.081-.612-.573-.61q-8.206.027-16.412,0c-.442,0-.574.133-.557.566.031.8.013,1.6.006,2.4,0,.187.065.394-.106.551a.724.724,0,0,1-.19-.59q-.02-4.66,0-9.319a.823.823,0,0,1,.172-.6c.2.14.123.354.125.537.009.721,0,1.442,0,2.162,0,.8,0,.8.774.8q9.7,0,19.391,0c.977,0,.864-.107.865.88,0,4.169.011,8.338-.011,12.507,0,.526.148.665.657.645.952-.038,1.907-.007,2.861,0v.117a.907.907,0,0,1-.655.185c-1.531,0-3.062.023-4.593-.011-1.417.033-2.835,0-4.252.015-.79.006-.825.035-.826.816,0,2.856,0,5.713,0,8.569a1.333,1.333,0,0,1-.185.949Z" transform="translate(-89.244 -80.784)" fill="#d3e7fe"/>
            <path id="Path_873" data-name="Path 873" d="M25.223,123.28a8.214,8.214,0,0,1-.095-2.251c-.028-1.256-.008-1.257-1.259-1.257-5.2,0-10.4.007-15.594-.01-.517,0-.7.11-.695.67q.043,4.616,0,9.233c0,.538.171.661.667.637.8-.038,1.6.017,2.393-.021.477-.023.588.15.586.6-.018,3.35-.011,6.7-.012,10.052H11.1a1.334,1.334,0,0,1-.185-.948c0-2.834,0-5.669,0-8.5,0-.859-.023-.877-.878-.883-1.358-.009-2.716.02-4.074-.014-1.571.033-3.143.011-4.714.011a.91.91,0,0,1-.658-.179c.331-.251.711-.1,1.066-.117a16.9,16.9,0,0,1,1.866,0c.487.033.58-.164.578-.6-.016-3.231-.008-6.462-.008-9.693,0-1.032.027-2.064-.012-3.094-.019-.509.121-.661.646-.659,4.454.022,8.909.012,13.363.012,2.159,0,4.318-.01,6.477.009.43,0,.566-.116.57-.557a15.517,15.517,0,0,1,.07-2.842c.254.2.219.484.22.748q.012,4.449,0,8.9a.915.915,0,0,1-.2.76" transform="translate(-0.583 -81.053)" fill="#ecf4fe"/>
            <path id="Path_874" data-name="Path 874" d="M.579,174.858l5.365-.011a1.062,1.062,0,0,1,.195.772q.006,4.491,0,8.982a1.068,1.068,0,0,1-.188.774H.576q0-5.259,0-10.517" transform="translate(-0.576 -125.495)" fill="#9187fe"/>
            <path id="Path_875" data-name="Path 875" d="M87.726,184.84V174.3a6.738,6.738,0,0,1,1.268-.04,20.553,20.553,0,0,0,2.825-.117A1.549,1.549,0,0,1,93,174.3a1.245,1.245,0,0,1,.173.838q.007,4.434,0,8.867a1.15,1.15,0,0,1-.188.832Z" transform="translate(-63.073 -124.959)" fill="#fe8744"/>
            <path id="Path_876" data-name="Path 876" d="M106.31,184.852q0-5.261,0-10.522l.084-.077a1.952,1.952,0,0,1,1.138-.093,28.78,28.78,0,0,0,3.743.113.8.8,0,0,1,.284.037q0,5.271.009,10.543Z" transform="translate(-76.399 -124.971)" fill="#fe4b47"/>
            <path id="Path_877" data-name="Path 877" d="M174.826,185.343c0-3.37-.005-6.739-.02-10.109,0-.33.1-.435.431-.432,1.615.017,3.23.013,4.845.016a1.071,1.071,0,0,1,.19.773q.006,4.489,0,8.978a1.067,1.067,0,0,1-.188.773Z" transform="translate(-125.519 -125.463)" fill="#3869ac"/>
            <path id="Path_878" data-name="Path 878" d="M193.459,185.384q0-5.262,0-10.525l5.259,0c0,3.371-.007,6.742.01,10.113,0,.349-.07.425-.419.42-1.616-.023-3.232-.01-4.849-.01" transform="translate(-138.895 -125.503)" fill="#00457f"/>
            <path id="Path_879" data-name="Path 879" d="M19.56,185.327q0-5.264-.007-10.528c1.571,0,3.143,0,4.714-.019.365,0,.458.125.457.472-.016,3.358-.018,6.717-.023,10.075Z" transform="translate(-14.185 -125.446)" fill="#736adb"/>
            <path id="Path_880" data-name="Path 880" d="M51.056,25.082c-3.562-.006-7.124,0-10.686-.02a8.8,8.8,0,0,1-2-17.343.818.818,0,0,0,.648-.681A8.6,8.6,0,0,1,45.9.571a8.365,8.365,0,0,1,7.02,1.709A2.648,2.648,0,0,1,53,3.088q0,10.475,0,20.95a1.773,1.773,0,0,1-.149,1.023,1.982,1.982,0,0,1-1.793.02" transform="translate(-22.898 -0.385)" fill="#71e1f9"/>
            <path id="Path_881" data-name="Path 881" d="M106.316,29.541q-.006-11.167-.01-22.333c0-.151-.037-.316.107-.433.658.828,1.338.766,2.324.4a8.644,8.644,0,0,1,10.707,4.354.918.918,0,0,0,.716.554,8.606,8.606,0,0,1,7.089,7.021,8.789,8.789,0,0,1-7.514,10.363,16.469,16.469,0,0,1-1.746.087l-9.927.02a2.59,2.59,0,0,1-1.593.1.3.3,0,0,1-.151-.134" transform="translate(-76.394 -4.881)" fill="#44b7ed"/>
            <path id="Path_882" data-name="Path 882" d="M87.627,122.453q-.01-5.2-.02-10.406c.251-.219.552-.1.827-.108.9-.022,1.807-.019,2.711-.026a2.069,2.069,0,0,1,1.783.019,1.35,1.35,0,0,1,.158.845q.006,4.438,0,8.876a1.389,1.389,0,0,1-.137.793,2.879,2.879,0,0,1-1.8.089c-1.167-.084-2.339.037-3.506-.064Z" transform="translate(-62.987 -80.226)" fill="#c4eb3a"/>
            <path id="Path_883" data-name="Path 883" d="M106.3,122.49q0-5.251-.007-10.5l.07-.083a2.346,2.346,0,0,1,1.69.042l3.489.028q.01,5.255.02,10.51l-.008.012a5.723,5.723,0,0,1-1.265.042,25.848,25.848,0,0,0-3.167.127.952.952,0,0,1-.823-.176" transform="translate(-76.39 -80.259)" fill="#0d7"/>
            <path id="Path_884" data-name="Path 884" d="M101.861,94.629l-1.749-.04V87.6l1.765-.036-.01.027a1.07,1.07,0,0,1,.186.772q.007,2.732,0,5.464a1.069,1.069,0,0,1-.178.773Z" transform="translate(-71.955 -62.901)" fill="#ecf4fe"/>
            <path id="Path_885" data-name="Path 885" d="M106.324,94.668q0-3.5-.008-7.009l1.755.009v6.989l-1.747.01" transform="translate(-76.404 -62.971)" fill="#d3e7fe"/>
            <path id="Path_886" data-name="Path 886" d="M92.985,156.919l-5.256-.014a8.1,8.1,0,0,1,2.243-.1c1.261-.028,1.262-.008,1.262-1.247q0-2.826-.006-5.653l.1-.056c.426-.015.855.017,1.279-.013.38-.026.53.147.552.5.025.427.014.854.014,1.281,0,1.475.005,2.95,0,4.426,0,.285.048.59-.194.822Z" transform="translate(-63.075 -107.561)" fill="#ecf4fe"/>
            <path id="Path_887" data-name="Path 887" d="M87.729,149.724l3.509.049.005.039-.015.016c-.982,0-1.965,0-2.947-.008-.187,0-.389.056-.552-.1" transform="translate(-63.075 -107.478)" fill="#ecf4fe"/>
            <path id="Path_888" data-name="Path 888" d="M100.136,149.773l-.005-.039,1.751-.064,5.255.007c-.153.179-.361.107-.545.109-.834.007-1.668.011-2.5,0-.3,0-.464.059-.462.413q.018,3.028,0,6.055c0,.331.12.442.443.436.834-.015,1.668-.008,2.5,0,.187,0,.391-.061.556.091l-5.259-.032c0-2.149,0-4.3.018-6.447,0-.411-.132-.55-.533-.524s-.812,0-1.218,0" transform="translate(-71.968 -107.44)" fill="#d3e7fe"/>
          </g>
        </g>
      </g>
    </g>
  </g>
</svg>
