<svg xmlns="http://www.w3.org/2000/svg" width="52" height="52" viewBox="0 0 52 52">
  <g id="Group_973" data-name="Group 973" transform="translate(-1479 -4643)">
    <circle id="Ellipse_59" data-name="Ellipse 59" cx="26" cy="26" r="26" transform="translate(1479 4643)" fill="#0a4729"/>
    <path id="Icon_awesome-pinterest-p" data-name="Icon awesome-pinterest-p" d="M11.373.457C5.653.457,0,4.27,0,10.442,0,14.366,2.208,16.6,3.546,16.6c.552,0,.87-1.539.87-1.973,0-.518-1.321-1.622-1.321-3.78a7.534,7.534,0,0,1,7.827-7.66c3.8,0,6.606,2.157,6.606,6.121,0,2.96-1.187,8.513-5.034,8.513a2.475,2.475,0,0,1-2.576-2.442c0-2.107,1.472-4.148,1.472-6.322,0-3.691-5.235-3.022-5.235,1.438a6.549,6.549,0,0,0,.535,2.826C5.92,16.63,4.348,21.563,4.348,24.975c0,1.054.151,2.091.251,3.144.19.212.095.19.385.084,2.81-3.847,2.709-4.6,3.98-9.633a4.522,4.522,0,0,0,3.863,2.007c5.92,0,8.58-5.77,8.58-10.971C21.407,4.07,16.624.457,11.373.457Z" transform="translate(1494.476 4654.795)" fill="#fff"/>
  </g>
</svg>
