<svg xmlns="http://www.w3.org/2000/svg" width="21.684" height="17.725" viewBox="0 0 21.684 17.725">
  <path id="_3a92628c1a8c5a402fa78c57f34a9400" data-name="3a92628c1a8c5a402fa78c57f34a9400" d="M18.96,8.673a7.622,7.622,0,0,1,.189,1.657c0,4.382-3.72,8.035-8.617,8.82a9.162,9.162,0,0,0,3.433.662,9.264,9.264,0,0,0,3.261-.588,11.923,11.923,0,0,0,3.768.54A9.663,9.663,0,0,1,19.7,17.751,5.708,5.708,0,0,0,21.736,13.5,5.905,5.905,0,0,0,18.96,8.673ZM1.016,17.923a.681.681,0,0,0,.6.364H1.65a8.93,8.93,0,0,0,3.658-1.47,30.025,30.025,0,0,0,3.254.411c4.774,0,8.513-3.324,8.513-7.569,0-4.174-3.817-7.569-8.513-7.569S.052,5.482.052,9.656a7.174,7.174,0,0,0,2.361,5.225A10.111,10.111,0,0,1,1.08,17.194a.68.68,0,0,0-.064.729Zm.394-8.267c0-3.425,3.209-6.212,7.155-6.212S15.72,6.231,15.72,9.656c0,3.54-3.076,6.212-7.155,6.212a31.084,31.084,0,0,1-3.257-.434.679.679,0,0,0-.514.1,11.362,11.362,0,0,1-1.609.892,11.5,11.5,0,0,0,.671-1.514.681.681,0,0,0-.206-.753,5.8,5.8,0,0,1-2.24-4.5Z" transform="translate(-0.052 -2.088)" fill="#fff"/>
</svg>
