<svg xmlns="http://www.w3.org/2000/svg" xmlns:xlink="http://www.w3.org/1999/xlink" width="60" height="60" viewBox="0 0 60 60">
  <defs>
    <clipPath id="clip-path">
      <rect id="Rectangle_627" data-name="Rectangle 627" width="60" height="60" transform="translate(0.45 0.451)" fill="none"/>
    </clipPath>
  </defs>
  <g id="turn_around_icon" data-name="turn around icon" transform="translate(-0.905 -0.033)">
    <g id="Group_1144" data-name="Group 1144" transform="translate(0.455 -0.418)" clip-path="url(#clip-path)">
      <path id="Path_890" data-name="Path 890" d="M1.373,481.92c0-.894,0-1.789-.018-2.683-.006-.307.1-.442.412-.414.177.016.357,0,.536,0H61.678c.258,0,.517,0,.775,0v3.1a1.288,1.288,0,0,1-.644.055q-29.9,0-59.793,0a1.2,1.2,0,0,1-.642-.059" transform="translate(-1.38 -421.343)" fill="#abb2b9"/>
      <path id="Path_891" data-name="Path 891" d="M1.406,504.728l61.079,0c-.107.247-.322.111-.478.112-2.406.011-4.813.007-7.219.007H1.392l.014-.123" transform="translate(-1.413 -444.152)" fill="#bbc1c7"/>
      <path id="Path_892" data-name="Path 892" d="M421.356,157.571c0,6.107-.008,12.214.013,18.32,0,.577-.154.73-.727.723-2.7-.03-5.409-.024-8.113,0-.46,0-.6-.108-.6-.59q.02-18.47,0-36.939c0-.45.124-.565.566-.561q4.146.03,8.292,0c.5,0,.581.167.581.613q-.019,9.22-.009,18.44" transform="translate(-362.814 -121.769)" fill="#fe6f52"/>
      <path id="Path_893" data-name="Path 893" d="M129.68,189.591c0,5.469-.008,10.938.012,16.406,0,.529-.137.665-.662.66-2.723-.027-5.447-.023-8.171,0-.468,0-.609-.127-.609-.6q.018-16.5,0-32.992c0-.462.146-.558.578-.555,2.723.019,5.447.024,8.171,0,.536-.005.7.124.695.682-.022,5.469-.013,10.938-.013,16.406" transform="translate(-106.046 -151.686)" fill="#43dbc3"/>
      <path id="Path_894" data-name="Path 894" d="M217.386,230.72c0-4.592.01-9.185-.013-13.777,0-.564.17-.689.7-.684,2.7.025,5.406.02,8.108,0,.429,0,.583.1.582.559q-.02,13.9,0,27.793c0,.459-.146.564-.579.561-2.743-.018-5.485-.022-8.228,0-.5,0-.582-.18-.581-.62q.019-6.918.008-13.837" transform="translate(-191.545 -190.206)" fill="#fed150"/>
      <path id="Path_895" data-name="Path 895" d="M31.714,276.8c0,3.619-.011,7.237.012,10.856,0,.526-.136.671-.665.666-2.723-.027-5.446-.022-8.169,0-.452,0-.616-.1-.615-.591q.024-10.945,0-21.89c0-.444.124-.577.572-.574q4.144.028,8.288,0c.5,0,.584.186.582.625-.014,3.638-.008,7.277-.008,10.915" transform="translate(-19.798 -233.345)" fill="#ccd5df"/>
      <path id="Path_896" data-name="Path 896" d="M315.272,315.246c0-2.765.01-5.529-.009-8.294,0-.467.083-.661.611-.656q4.085.04,8.171,0c.545-.005.661.187.66.692q-.023,8.323,0,16.647c0,.514-.131.689-.668.684q-4.085-.038-8.172,0c-.469,0-.608-.125-.6-.6.021-2.824.01-5.648.01-8.472" transform="translate(-277.719 -269.468)" fill="#80dafe"/>
      <path id="Path_897" data-name="Path 897" d="M208.51,52.515c-.006-.248-.193-.381-.346-.533q-6.427-6.43-12.855-12.859c-.152-.152-.285-.339-.533-.347a12.515,12.515,0,0,0,1.9-1.924c.157.177.305.364.473.531q6.412,6.419,12.826,12.835c.154.154.295.32.442.48-.031.18-.176.255-.316.324a3.126,3.126,0,0,0-1.3,1.253c-.067.112-.111.264-.294.241" transform="translate(-171.654 -32.27)" fill="#ccd5df"/>
      <path id="Path_898" data-name="Path 898" d="M70.381,38.738c-.295.016-.437.255-.615.433q-5.648,5.644-11.293,11.29a1.6,1.6,0,0,1-.538.459.212.212,0,0,1-.2-.1,3.585,3.585,0,0,0-1.549-1.436.25.25,0,0,1-.151-.237.816.816,0,0,0,.491-.309q5.849-5.853,11.7-11.706a3.944,3.944,0,0,0,.262-.321.211.211,0,0,1,.2.1,4.018,4.018,0,0,0,1.651,1.666.141.141,0,0,1,.045.16" transform="translate(-49.513 -32.233)" fill="#ccd5df"/>
      <path id="Path_899" data-name="Path 899" d="M356.748,57.617c-.088.106-.169.221-.266.318Q351,63.421,345.517,68.9a4.513,4.513,0,0,1-.366.3c-.041.006-.093.01-.111-.017a4.755,4.755,0,0,0-1.773-1.662c-.027-.014-.021-.069-.008-.109a.782.782,0,0,0,.488-.313q5.479-5.481,10.956-10.962c.1-.1.177-.213.265-.32a.265.265,0,0,1,.272.181,3.087,3.087,0,0,0,1.347,1.345c.1.052.2.127.16.275" transform="translate(-302.356 -48.962)" fill="#ccd5df"/>
      <path id="Path_900" data-name="Path 900" d="M441.886,25.546a3.784,3.784,0,0,1-1.78-1.8c-.434-1.867.112-3.288,1.545-4.017a3.179,3.179,0,1,1,.93,5.965c-.233-.039-.463-.1-.695-.146" transform="translate(-387.495 -16.891)" fill="#3f596c"/>
      <path id="Path_901" data-name="Path 901" d="M312.022,151.593a3.651,3.651,0,0,1,1.892,1.789,3.331,3.331,0,0,1-.533,3.253,3.174,3.174,0,0,1-5.538-2.73c.038-.173.089-.344.134-.516a3.583,3.583,0,0,1,1.908-1.818,4.078,4.078,0,0,1,2.138.022" transform="translate(-271.12 -133.144)" fill="#3f596c"/>
      <path id="Path_902" data-name="Path 902" d="M24.792,138.723a3.7,3.7,0,0,1,1.9,1.774,3.359,3.359,0,0,1-.441,3.171,3.178,3.178,0,1,1-1.809-5.021c.116.027.233.051.349.076" transform="translate(-18.274 -121.81)" fill="#3f596c"/>
      <path id="Path_903" data-name="Path 903" d="M160.9,7.412A3.6,3.6,0,0,1,159,5.483a3.2,3.2,0,0,1,1.082-3.57,3.106,3.106,0,0,1,3.66-.178,3.193,3.193,0,0,1,1.38,3.4c-.026.115-.046.232-.068.348a3.57,3.57,0,0,1-1.9,1.924,3.761,3.761,0,0,1-2.256,0" transform="translate(-140.032 -0.906)" fill="#3f596c"/>
    </g>
  </g>
</svg>
