<svg xmlns="http://www.w3.org/2000/svg" width="52" height="52" viewBox="0 0 52 52">
  <g id="Group_972" data-name="Group 972" transform="translate(-1362 -4643)">
    <circle id="Ellipse_57" data-name="Ellipse 57" cx="26" cy="26" r="26" transform="translate(1362 4643)" fill="#0a4729"/>
    <path id="Icon_ionic-logo-twitter" data-name="Icon ionic-logo-twitter" d="M27.721,7.037a10.912,10.912,0,0,1-3.1.853A5.416,5.416,0,0,0,27,4.9a10.725,10.725,0,0,1-3.429,1.31A5.4,5.4,0,0,0,14.23,9.9a5.284,5.284,0,0,0,.139,1.232A15.3,15.3,0,0,1,3.242,5.487,5.408,5.408,0,0,0,4.92,12.7a5.272,5.272,0,0,1-2.453-.675v.067a5.4,5.4,0,0,0,4.332,5.3,5.433,5.433,0,0,1-1.422.19,5.092,5.092,0,0,1-1.015-.1A5.406,5.406,0,0,0,9.408,21.23,10.821,10.821,0,0,1,2.7,23.544a10.94,10.94,0,0,1-1.288-.078,15.086,15.086,0,0,0,8.262,2.442,15.265,15.265,0,0,0,15.37-15.375c0-.234-.006-.468-.017-.7A10.987,10.987,0,0,0,27.721,7.037Z" transform="translate(1373.27 4653.961)" fill="#fff"/>
  </g>
</svg>
