<svg xmlns="http://www.w3.org/2000/svg" width="1596.71" height="598" viewBox="0 0 1596.71 598">
  <g id="Group_57" data-name="Group 57" transform="translate(-186.94 -73.81)" opacity="0.7">
    <path id="Path_124" data-name="Path 124" d="M416.344,81.482l5.707,3.3v6.6l-5.754,3.3-5.707-3.3v-6.6l5.754-3.3m0-.8-6.414,3.679v7.4l6.414,3.726,6.414-3.679v-7.4l-6.414-3.726Z" transform="translate(828.733 25.532)" fill="#deea87" style="mix-blend-mode: hard-light;isolation: isolate"/>
    <path id="Path_125" data-name="Path 125" d="M390.312,78.621l-8.3-4.811-8.3,4.811V88.2l8.3,4.811,8.3-4.764Z" transform="translate(694.123)" fill="#deea87" style="mix-blend-mode: hard-light;isolation: isolate"/>
    <path id="Path_126" data-name="Path 126" d="M563.383,134.31l-52.305-30.28-52.353,30.185-.094,60.418,52.306,30.28,52.4-30.138Z" transform="translate(1009.725 112.311)" fill="#deea87" style="mix-blend-mode: hard-light;isolation: isolate"/>
    <path id="Path_127" data-name="Path 127" d="M428.187,117.937l-4.434-2.547-4.386,2.547-.047,5.094,4.433,2.547,4.434-2.547Z" transform="translate(863.631 154.53)" fill="#deea87" style="mix-blend-mode: hard-light;isolation: isolate"/>
    <path id="Path_128" data-name="Path 128" d="M335.838,86.144l20.847,12.074v24.1l-20.941,12.027L314.9,122.272v-24.1l20.894-12.027m0-2.924L312.35,96.709v27.025L335.7,137.271l23.441-13.489V96.756L335.744,83.22h0Z" transform="translate(466.081 34.972)" fill="#deea87" style="mix-blend-mode: hard-light;isolation: isolate"/>
    <path id="Path_129" data-name="Path 129" d="M346.336,79.819l11.178,6.462V99.157l-11.178,6.462-11.178-6.462V86.281l11.178-6.414m0-1.556L333.79,85.526v14.48l12.5,7.263,12.546-7.216V85.573l-12.5-7.263Z" transform="translate(545.762 16.724)" fill="#deea87" style="mix-blend-mode: hard-light;isolation: isolate"/>
    <path id="Path_130" data-name="Path 130" d="M448.428,98.512l48.485,28.063v55.984l-48.579,27.969-48.485-28.063V126.48l48.579-27.921m0-6.792L394,123.084v62.776l54.286,31.459,54.428-31.364V123.179L448.428,91.72h0Z" transform="translate(769.53 66.562)" fill="#deea87" style="mix-blend-mode: hard-light;isolation: isolate"/>
    <path id="Path_131" data-name="Path 131" d="M487.643,80.086l3.962,2.311v4.575l-3.962,2.264-3.962-2.311V82.35l3.962-2.264m0-.566-4.433,2.547v5.141l4.433,2.594,4.434-2.547V82.114l-4.434-2.594Z" transform="translate(1101.076 21.221)" fill="#deea87" style="mix-blend-mode: hard-light;isolation: isolate"/>
    <path id="Path_132" data-name="Path 132" d="M450.362,87.159l73.53,42.542-.094,84.943-73.624,42.4L376.644,214.5l.094-84.943,73.624-42.4m0-10.329-82.538,47.542-.094,95.273,82.444,47.731,82.538-47.542.094-95.272L450.362,76.83h0Z" transform="translate(671.899 11.224)" fill="#deea87" style="mix-blend-mode: hard-light;isolation: isolate"/>
    <path id="Path_133" data-name="Path 133" d="M363.372,89.04l10,5.8V106.4l-10.046,5.754-10-5.8V94.794l10.046-5.754m0-.33L353.09,94.653v11.885l10.282,5.943,10.329-5.943V94.653L363.419,88.71h0Z" transform="translate(617.49 55.375)" fill="#deea87" style="mix-blend-mode: hard-light;isolation: isolate"/>
    <path id="Path_134" data-name="Path 134" d="M452.373,111.24l10.423,6.037v12.074l-10.471,6.037L441.9,129.351V117.277l10.471-6.037m0-.33-10.753,6.179v12.4l10.706,6.226,10.754-6.179v-12.4l-10.706-6.226Z" transform="translate(946.508 137.881)" fill="#deea87" style="mix-blend-mode: hard-light;isolation: isolate"/>
    <path id="Path_135" data-name="Path 135" d="M359.309,116.826l6.98,4.056v8.065l-7.027,4.009-6.98-4.056v-8.065l7.027-4.009m0-.236-7.169,4.15v8.3l7.169,4.15,7.169-4.15v-8.3l-7.169-4.15Z" transform="translate(613.959 158.99)" fill="#deea87" style="mix-blend-mode: hard-light;isolation: isolate"/>
    <path id="Path_136" data-name="Path 136" d="M483.937,76.1,541.2,109.256l-.094,66.172-57.352,33.015-57.305-33.157.094-66.172L483.89,76.1m0-1.839-58.956,33.958-.094,68.011,58.862,34.1,58.956-33.958.094-68.011L483.89,74.26Z" transform="translate(884.146 1.672)" fill="#deea87" style="mix-blend-mode: hard-light;isolation: isolate"/>
    <path id="Path_137" data-name="Path 137" d="M547.281,78.941l82.491,47.731-.094,95.273-82.585,47.542L464.6,221.756l.094-95.273,82.585-47.542m0-2.641-84.9,48.863-.094,97.961,84.755,49.051,84.9-48.863.094-97.961L547.233,76.3h0Z" transform="translate(1023.327 9.254)" fill="#deea87" style="mix-blend-mode: hard-light;isolation: isolate"/>
    <path id="Path_138" data-name="Path 138" d="M314.931,113.241l5,2.877v5.754l-5,2.877-5-2.877v-5.754l5-2.877m0-.142-5.141,2.971v5.9l5.094,2.971,5.141-2.971v-5.9l-5.094-2.971Z" transform="translate(456.567 146.02)" fill="#deea87" style="mix-blend-mode: hard-light;isolation: isolate"/>
    <path id="Path_139" data-name="Path 139" d="M381.984,99.468l63.2,36.6-.094,73.011L381.8,245.537l-63.2-36.6.094-73.011,63.3-36.458m0-2.028-65.04,37.449-.094,75.039,64.946,37.59,65.04-37.449.094-75.039L381.984,97.44Z" transform="translate(482.805 87.82)" fill="#deea87" style="mix-blend-mode: hard-light;isolation: isolate"/>
    <path id="Path_140" data-name="Path 140" d="M422.263,103.7l54.852,31.789v63.389l-54.994,31.647-54.9-31.742V135.393l54.994-31.647m0-1.745L365.76,134.544v65.134l56.315,32.638,56.456-32.5V134.685l-56.315-32.638h0Z" transform="translate(664.577 104.767)" fill="#deea87" style="mix-blend-mode: hard-light;isolation: isolate"/>
    <path id="Path_141" data-name="Path 141" d="M493.427,76.548l42.4,24.573v49l-42.5,24.431-42.4-24.526v-49l42.5-24.478m0-1.368L449.8,100.319v50.372l43.533,25.233,43.627-25.139V100.413L493.427,75.18Z" transform="translate(976.909 5.092)" fill="#deea87" style="mix-blend-mode: hard-light;isolation: isolate"/>
    <path id="Path_142" data-name="Path 142" d="M603.386,203.042,487.361,135.88,371.241,202.759,371.1,336.8l115.978,67.115,116.166-66.879Z" transform="translate(684.423 230.681)" fill="#deea87" opacity="0.6" style="mix-blend-mode: hard-light;isolation: isolate"/>
    <path id="Path_143" data-name="Path 143" d="M605.512,191.887l-74.8-43.3-74.945,43.156L455.67,278.2l74.85,43.3,74.9-43.156Z" transform="translate(998.724 277.917)" fill="#deea87" opacity="0.6" style="mix-blend-mode: hard-light;isolation: isolate"/>
    <path id="Path_144" data-name="Path 144" d="M428.508,118.549l26.271,15.187v30.327L428.461,179.2,402.19,164.015V133.689l26.318-15.14m0-3.679L399.03,131.849v34.006l29.431,17.026L457.939,165.9V131.9L428.508,114.87Z" transform="translate(788.224 152.598)" fill="#deea87" style="mix-blend-mode: hard-light;isolation: isolate"/>
    <path id="Path_145" data-name="Path 145" d="M552.251,137.307,680.68,211.638l-.142,148.38L551.968,434.066,423.539,359.735l.141-148.38,128.571-74.048m0-18.017L408.069,202.3l-.189,166.35,143.994,83.34,144.182-83.01.189-166.349L552.251,119.29h0Z" transform="translate(821.115 169.025)" fill="#deea87" style="mix-blend-mode: hard-light;isolation: isolate"/>
    <path id="Path_146" data-name="Path 146" d="M262.591,118.026l8.537,4.952v9.857l-8.584,4.905-8.537-4.952v-9.857l8.584-4.952m0-1.179-9.621,5.518V133.4l9.574,5.565,9.622-5.518V122.365l-9.574-5.565Z" transform="translate(245.398 159.771)" fill="#deea87" style="mix-blend-mode: hard-light;isolation: isolate"/>
    <path id="Path_147" data-name="Path 147" d="M244.536,129.036l-12.4-7.216-12.452,7.169v14.385l12.4,7.169,12.451-7.169Z" transform="translate(121.677 178.427)" fill="#deea87" style="mix-blend-mode: hard-light;isolation: isolate"/>
    <path id="Path_148" data-name="Path 148" d="M482.309,196.988,404.158,151.71,325.864,196.8l-.094,90.32,78.2,45.278,78.246-45.089Z" transform="translate(515.956 289.512)" fill="#deea87" style="mix-blend-mode: hard-light;isolation: isolate"/>
    <path id="Path_149" data-name="Path 149" d="M280.226,172.5l-6.6-3.82-6.6,3.82v7.594l6.6,3.82,6.6-3.773Z" transform="translate(297.614 352.581)" fill="#deea87" style="mix-blend-mode: hard-light;isolation: isolate"/>
    <path id="Path_150" data-name="Path 150" d="M646.19,191.99l-76.5-44.24-76.6,44.1L493,280.188l76.5,44.288,76.6-44.1Z" transform="translate(1137.46 274.795)" fill="#deea87" style="mix-blend-mode: hard-light;isolation: isolate"/>
    <path id="Path_151" data-name="Path 151" d="M310.6,143.45l72.445,41.929-.094,83.67-72.539,41.788L237.97,268.908l.094-83.67L310.6,143.45m0-10.14-81.359,46.834L229.15,274l81.217,47.023,81.312-46.834.094-93.857L310.556,133.31h0Z" transform="translate(156.872 221.129)" fill="#deea87" style="mix-blend-mode: hard-light;isolation: isolate"/>
    <path id="Path_152" data-name="Path 152" d="M462.686,115.851l16.508,9.574V144.48l-16.555,9.527-16.508-9.574V125.378l16.555-9.527m0-2.311L444.15,124.2v21.366l18.489,10.706,18.536-10.659V124.246L462.686,113.54Z" transform="translate(955.911 147.655)" fill="#deea87" style="mix-blend-mode: hard-light;isolation: isolate"/>
    <path id="Path_153" data-name="Path 153" d="M369.15,115.929l5.943,3.443v6.839l-5.943,3.4-5.943-3.443v-6.839l5.943-3.4m0-.849-6.65,3.82v7.688l6.65,3.867,6.65-3.82v-7.688l-6.65-3.868Z" transform="translate(652.462 153.378)" fill="#deea87" style="mix-blend-mode: hard-light;isolation: isolate"/>
    <path id="Path_154" data-name="Path 154" d="M316.433,162.509l15.611,9.008v18.017l-15.659,9.008-15.612-9.008V171.517l15.659-9.008m0-.519-16.083,9.244V189.77l16.036,9.291,16.036-9.244V171.281l-15.989-9.291h0Z" transform="translate(421.484 327.717)" fill="#deea87" style="mix-blend-mode: hard-light;isolation: isolate"/>
    <path id="Path_155" data-name="Path 155" d="M363.461,109.956l85.6,49.57-.094,98.9-85.7,49.381-85.6-49.57.094-98.9,85.745-49.381m0-2.736-88.1,50.749-.094,101.687,88.009,50.938,88.1-50.749.094-101.687L363.508,107.22h0Z" transform="translate(328.424 124.167)" fill="#deea87" style="mix-blend-mode: hard-light;isolation: isolate"/>
    <path id="Path_156" data-name="Path 156" d="M458.254,114.222l123.288,71.36L581.4,328.019,457.971,399.1l-123.288-71.36.141-142.437,123.43-71.077m0-3.962L331.382,183.318l-.142,146.4,126.684,73.341L584.8,330l.141-146.4L458.254,110.26Z" transform="translate(536.285 135.465)" fill="#deea87" style="mix-blend-mode: hard-light;isolation: isolate"/>
    <path id="Path_157" data-name="Path 157" d="M271.459,151.291l81.972,47.495-.094,94.754L271.27,340.846,189.251,293.4l.094-94.754,82.113-47.306m0-2.641-84.424,48.627-.094,97.395,84.283,48.768L355.6,294.86l.094-97.395L271.412,148.65h0Z" transform="translate(0 278.14)" fill="#deea87" style="mix-blend-mode: hard-light;isolation: isolate"/>
    <path id="Path_158" data-name="Path 158" d="M377.826,110.618l63.389,36.694-.094,73.247-63.436,36.553L314.3,220.417l.094-73.247,63.483-36.553m0-2.028-65.229,37.59-.094,75.275,65.134,37.685L442.913,221.6l.094-75.275L377.873,108.59Z" transform="translate(466.825 129.259)" fill="#deea87" style="mix-blend-mode: hard-light;isolation: isolate"/>
    <path id="Path_159" data-name="Path 159" d="M491.021,124.606l7.735,4.481v8.961l-7.782,4.481-7.735-4.481v-8.961l7.782-4.481m0-.236-7.971,4.575v9.2l7.971,4.622,7.971-4.575v-9.2l-7.971-4.622Z" transform="translate(1100.481 187.904)" fill="#deea87" style="mix-blend-mode: hard-light;isolation: isolate"/>
    <path id="Path_160" data-name="Path 160" d="M512.517,342.675l-83.293-48.2.094-96.216,83.387-48.013L596,198.445l-.094,96.216-83.387,48.014m0,3.82,86.688-49.9.094-100.036L512.753,146.47l-86.689,49.9-.094,100.036L512.517,346.5Z" transform="translate(888.345 270.038)" fill="#deea87" style="mix-blend-mode: hard-light;isolation: isolate"/>
    <path id="Path_161" data-name="Path 161" d="M477.118,129.139l26.271,15.187v30.327l-26.318,15.14L450.8,174.605V144.279l26.318-15.14m0-3.679L447.64,142.439v34.006l29.431,17.026,29.478-16.979V142.486L477.118,125.46h0Z" transform="translate(968.881 191.955)" fill="#deea87" style="mix-blend-mode: hard-light;isolation: isolate"/>
    <path id="Path_162" data-name="Path 162" d="M600.861,147.85,729.29,222.181l-.142,148.38L600.578,444.609,472.149,370.278l.142-148.333L600.861,147.9m0-18.017L456.679,212.89l-.189,166.35,143.993,83.34,144.182-83.01.188-166.35L600.861,129.88Z" transform="translate(1001.772 208.382)" fill="#deea87" style="mix-blend-mode: hard-light;isolation: isolate"/>
    <path id="Path_163" data-name="Path 163" d="M311.164,128.606l8.537,4.952v9.857l-8.584,4.905-8.537-4.952v-9.857l8.584-4.952m0-1.179L301.59,132.9v11.084l9.574,5.565,9.622-5.518V132.945l-9.574-5.565h0Z" transform="translate(426.092 199.091)" fill="#deea87" style="mix-blend-mode: hard-light;isolation: isolate"/>
    <path id="Path_164" data-name="Path 164" d="M286.123,136.846l-12.451-7.216-12.4,7.169-.047,14.338,12.451,7.216,12.4-7.169Z" transform="translate(276.059 207.453)" fill="#deea87" style="mix-blend-mode: hard-light;isolation: isolate"/>
    <path id="Path_165" data-name="Path 165" d="M530.919,207.568,452.768,162.29l-78.293,45.089-.094,90.367,78.2,45.231,78.246-45.089Z" transform="translate(696.613 328.832)" fill="#deea87" opacity="0.5" style="mix-blend-mode: hard-light;isolation: isolate"/>
    <path id="Path_166" data-name="Path 166" d="M328.836,183.08l-6.6-3.82-6.6,3.82v7.641l6.6,3.82,6.6-3.82Z" transform="translate(478.271 391.901)" fill="#deea87" style="mix-blend-mode: hard-light;isolation: isolate"/>
    <path id="Path_167" data-name="Path 167" d="M206.524,126.188l16.7,9.669v19.29l-16.743,9.622-16.7-9.669V135.81l16.743-9.622m0-2.358-18.724,10.8v21.6l18.677,10.848,18.724-10.8v-21.6L206.524,123.83h0Z" transform="translate(3.196 185.897)" fill="#deea87" style="mix-blend-mode: hard-light;isolation: isolate"/>
    <path id="Path_168" data-name="Path 168" d="M359.213,154.03l72.445,41.929-.094,83.67-72.539,41.788L286.58,279.488l.094-83.67,72.539-41.788m0-10.14-81.359,46.835-.094,93.857,81.217,47.023,81.312-46.835.094-93.858L359.166,143.89h0Z" transform="translate(337.529 260.45)" fill="#deea87" style="mix-blend-mode: hard-light;isolation: isolate"/>
    <path id="Path_169" data-name="Path 169" d="M511.3,126.431l16.508,9.574V155.06l-16.555,9.527-16.508-9.574V135.958l16.555-9.527m0-2.311L492.76,134.779v21.366l18.489,10.706,18.536-10.659V134.826L511.3,124.12h0Z" transform="translate(1136.568 186.975)" fill="#deea87" style="mix-blend-mode: hard-light;isolation: isolate"/>
    <path id="Path_170" data-name="Path 170" d="M417.76,126.509l5.943,3.443v6.839l-5.943,3.4-5.943-3.443V129.9l5.943-3.4m0-.849-6.65,3.82v7.688l6.65,3.868,6.65-3.82v-7.688l-6.65-3.867h0Z" transform="translate(833.119 192.699)" fill="#deea87" style="mix-blend-mode: hard-light;isolation: isolate"/>
    <path id="Path_171" data-name="Path 171" d="M232.006,139.862l14.951,8.678v17.309l-15,8.631L217.007,165.8V148.493l15-8.631m0-.472-15.376,8.867v17.781l15.376,8.914,15.423-8.867V148.3l-15.376-8.914h0Z" transform="translate(110.342 243.725)" fill="#deea87" style="mix-blend-mode: hard-light;isolation: isolate"/>
    <path id="Path_172" data-name="Path 172" d="M365.043,173.089l15.611,9.008v18.017L365,209.123l-15.611-9.008V182.1l15.659-9.008m0-.519-16.083,9.244V200.35L365,209.641l16.036-9.244V181.861l-15.989-9.291h0Z" transform="translate(602.141 367.038)" fill="#deea87" style="mix-blend-mode: hard-light;isolation: isolate"/>
    <path id="Path_173" data-name="Path 173" d="M412.07,120.536l85.6,49.57-.094,98.951-85.7,49.381-85.6-49.57.094-98.951,85.745-49.381m0-2.736-88.1,50.749-.094,101.687,88.009,50.938,88.1-50.749.094-101.687L412.118,117.8Z" transform="translate(509.081 163.487)" fill="#deea87" style="mix-blend-mode: hard-light;isolation: isolate"/>
    <path id="Path_174" data-name="Path 174" d="M506.864,124.8l123.288,71.36L630.011,338.6l-123.43,71.077-123.288-71.36.142-142.437L506.864,124.8m0-3.962L379.992,193.9l-.142,146.4,126.684,73.341L633.407,340.58l.142-146.4L506.864,120.84h0Z" transform="translate(716.942 174.785)" fill="#deea87" style="mix-blend-mode: hard-light;isolation: isolate"/>
    <path id="Path_175" data-name="Path 175" d="M320.069,161.871l81.972,47.495-.094,94.754L319.88,351.426l-82.019-47.448.094-94.754,82.114-47.306m0-2.641L235.644,207.9,235.55,305.3l84.283,48.768,84.378-48.627.094-97.395L320.022,159.23h0Z" transform="translate(180.657 317.46)" fill="#deea87" style="mix-blend-mode: hard-light;isolation: isolate"/>
    <path id="Path_176" data-name="Path 176" d="M426.436,121.2l63.389,36.694-.094,73.247-63.437,36.553L362.905,231,363,157.751,426.483,121.2m0-2.028-65.229,37.59-.094,75.275,65.134,37.685,65.229-37.543.094-75.275L426.483,119.17Z" transform="translate(647.482 168.579)" fill="#deea87" style="mix-blend-mode: hard-light;isolation: isolate"/>
  </g>
</svg>
